<svg aria-hidden="true" style="position: absolute; width: 0; height: 0; overflow: hidden;" version="1.1" xmlns="http://www.w3.org/2000/svg" xmlns:xlink="http://www.w3.org/1999/xlink">
<defs>
<symbol id="icon-hyperlink" viewBox="0 0 16 16">
<path d="M15.733 4.133l-3.867-3.867c-0.356-0.356-0.933-0.356-1.289 0l-3.867 3.867c-0.357 0.356-0.357 0.933 0 1.29l0.644 0.644 3.867-3.867 2.578 2.578-3.867 3.867 0.645 0.645c0.356 0.356 0.933 0.356 1.289 0l3.867-3.867c0.356-0.357 0.356-0.934 0-1.29zM8.645 9.933l-3.867 3.867-2.578-2.578 3.867-3.867-0.645-0.645c-0.356-0.356-0.933-0.356-1.289 0l-3.867 3.867c-0.356 0.357-0.356 0.934 0 1.29l3.867 3.867c0.356 0.356 0.933 0.356 1.289 0l3.867-3.867c0.357-0.356 0.357-0.933 0-1.29l-0.644-0.644zM5.422 10.577c0.357 0.357 0.933 0.357 1.29 0l3.867-3.867c0.356-0.356 0.356-0.932 0-1.288s-0.933-0.357-1.29 0l-3.867 3.867c-0.356 0.356-0.356 0.932 0 1.288z"></path>
</symbol>
</defs>
</svg>
